<svg xmlns="http://www.w3.org/2000/svg" viewBox="0 0 61.5 45.5"><defs><style>.cls-1{fill:#03a9f4;}</style></defs><title>camera-active</title><g id="Layer_2" data-name="Layer 2"><g id="Layer_1-2" data-name="Layer 1"><path class="cls-1" d="M53,14.75A2.75,2.75,0,1,1,55.75,12,2.75,2.75,0,0,1,53,14.75Zm0-4.5A1.75,1.75,0,1,0,54.75,12,1.76,1.76,0,0,0,53,10.25Z"/><path class="cls-1" d="M31,38.25A12.75,12.75,0,1,1,43.75,25.5,12.76,12.76,0,0,1,31,38.25Zm0-24.5A11.75,11.75,0,1,0,42.75,25.5,11.76,11.76,0,0,0,31,13.75Z"/><path class="cls-1" d="M58.75,4H20.5V1.75A1.76,1.76,0,0,0,18.75,0h-12A1.76,1.76,0,0,0,5,1.75V4H2.75A2.75,2.75,0,0,0,0,6.75v36A2.75,2.75,0,0,0,2.75,45.5h56a2.75,2.75,0,0,0,2.75-2.75v-36A2.75,2.75,0,0,0,58.75,4ZM60,42.75A1.25,1.25,0,0,1,58.75,44h-56A1.25,1.25,0,0,1,1.5,42.75v-36A1.25,1.25,0,0,1,2.75,5.5H6.5V1.75a.25.25,0,0,1,.25-.25h12a.25.25,0,0,1,.25.25V5.5H58.75A1.25,1.25,0,0,1,60,6.75Z"/></g></g></svg>