<svg xmlns="http://www.w3.org/2000/svg" viewBox="0 0 46 46"><title>comment</title><g id="Layer_2" data-name="Layer 2"><g id="Layer_1-2" data-name="Layer 1"><path d="M4.4,9.45A21.56,21.56,0,0,1,6,7.54,22.94,22.94,0,0,1,8.84,4.86a21.26,21.26,0,0,1,1.92-1.34A22.81,22.81,0,0,1,23,0c.28,0,.55,0,.82,0a22.43,22.43,0,0,1,2.6.24h.05c.64.09,1.28.22,1.89.36a22.85,22.85,0,0,1,7.25,3.15,20,20,0,0,1,1.89,1.39q.57.47,1.11,1a22.21,22.21,0,0,1,1.9,2,22.92,22.92,0,0,1,4.35,7.78c.17.54.33,1.1.46,1.67a22.29,22.29,0,0,1,.64,5.33,22.59,22.59,0,0,1-2.55,10.46L46,46,33.89,43a22.89,22.89,0,0,1-17.22,1.9A15,15,0,0,1,15,44.38a22.6,22.6,0,0,1-7.64-4.67A22.16,22.16,0,0,1,5.55,37.8l-.14-.17a18.72,18.72,0,0,1-1.34-1.74A22.55,22.55,0,0,1,.22,26.05l0-.23C.11,25.28.07,24.74,0,24.19c0-.36,0-.73,0-1.1v-.2A22.62,22.62,0,0,1,4.4,9.45Zm37.42,23.6a19.88,19.88,0,0,0,.87-1.8,21.19,21.19,0,0,0,1.37-12.12,16.66,16.66,0,0,0-.39-1.76,21,21,0,0,0-3-6.54A20.65,20.65,0,0,0,39,8.74a21.49,21.49,0,0,0-4.09-3.58,19,19,0,0,0-2.4-1.39,19,19,0,0,0-2.87-1.19c-.44-.15-.9-.28-1.36-.4L27.58,2c-.6-.13-1.21-.24-1.83-.32A21.35,21.35,0,0,0,7,8.7,21.16,21.16,0,0,0,1.51,22.89a21.66,21.66,0,0,0,.13,2.29,1.36,1.36,0,0,1,0,.2c.08.66.19,1.32.33,2,0,.16.07.31.1.47a21,21,0,0,0,2.05,5.34,18.08,18.08,0,0,0,1.35,2.12,21.93,21.93,0,0,0,2.6,3,21,21,0,0,0,2,1.68,21.3,21.3,0,0,0,6.48,3.33,14.85,14.85,0,0,0,1.74.46,20.66,20.66,0,0,0,4.68.53,21.36,21.36,0,0,0,9-2,14.9,14.9,0,0,0,1.68-.88h0l1.84.42,1,.24L44,43.9"/><circle cx="11.92" cy="22.88" r="2.5"/><circle cx="22.78" cy="22.88" r="2.5"/><circle cx="33.64" cy="22.88" r="2.5"/></g></g></svg>