<svg xmlns="http://www.w3.org/2000/svg" viewBox="0 0 47 47"><defs><style>.cls-1{fill:#797979;}</style></defs><title>eyeme4</title><g id="Layer_2" data-name="Layer 2"><g id="Layer_1-2" data-name="Layer 1"><path class="cls-1" d="M23.5,38.25A14.75,14.75,0,1,1,38.25,23.5,14.76,14.76,0,0,1,23.5,38.25Zm0-28A13.25,13.25,0,1,0,36.75,23.5,13.27,13.27,0,0,0,23.5,10.25Z"/><path class="cls-1" d="M23.5,14.75a8.75,8.75,0,1,0,8.75,8.75A8.77,8.77,0,0,0,23.5,14.75Zm5.92,9.42a.76.76,0,0,1-.75-.75,5.26,5.26,0,0,0-5.25-5.25.75.75,0,0,1,0-1.5,6.76,6.76,0,0,1,6.75,6.75A.76.76,0,0,1,29.42,24.17Z"/><path class="cls-1" d="M46.81,7.85A9.75,9.75,0,0,0,37.25,0H9.75A9.77,9.77,0,0,0,0,9.75v27.5A9.76,9.76,0,0,0,9.75,47h27.5A9.76,9.76,0,0,0,47,37.25V9.75A9.14,9.14,0,0,0,46.81,7.85ZM41.42,3.42a2,2,0,1,1-2,2A2,2,0,0,1,41.42,3.42ZM45.5,37.25a8.26,8.26,0,0,1-8.25,8.25H9.75A8.26,8.26,0,0,1,1.5,37.25V9.75A8.26,8.26,0,0,1,9.75,1.5h27.5a9,9,0,0,1,1.17.08V6.42a2,2,0,0,0,2,2h5a8.33,8.33,0,0,1,.11,1.33Z"/></g></g></svg>