<svg xmlns="http://www.w3.org/2000/svg" viewBox="0 0 60.5 45.5"><defs><style>.cls-1{fill:#797979;}</style></defs><title>eyeme2</title><g id="Layer_2" data-name="Layer 2"><g id="Layer_1-2" data-name="Layer 1"><path class="cls-1" d="M57.75,5H56.5V4.75A1.76,1.76,0,0,0,54.75,3h-7A1.76,1.76,0,0,0,46,4.75V5H40.09c-1.3-5-1.8-5-2.34-5h-15c-.54,0-1,0-2.34,5H2.75A2.75,2.75,0,0,0,0,7.75v35A2.75,2.75,0,0,0,2.75,45.5h55a2.75,2.75,0,0,0,2.75-2.75v-35A2.75,2.75,0,0,0,57.75,5ZM59,42.75A1.25,1.25,0,0,1,57.75,44h-55A1.25,1.25,0,0,1,1.5,42.75v-35A1.25,1.25,0,0,1,2.75,6.5H21.58L22,5a28.34,28.34,0,0,1,1.12-3.5H37.41A28.34,28.34,0,0,1,38.53,5l.39,1.5H47.5V4.75a.25.25,0,0,1,.25-.25h7a.25.25,0,0,1,.25.25V6.5h2.75A1.25,1.25,0,0,1,59,7.75Z"/><path class="cls-1" d="M30.25,39.5A14.75,14.75,0,1,1,45,24.75,14.77,14.77,0,0,1,30.25,39.5Zm0-28A13.25,13.25,0,1,0,43.5,24.75,13.26,13.26,0,0,0,30.25,11.5Z"/><path class="cls-1" d="M30.25,35.5A10.75,10.75,0,1,1,41,24.75,10.76,10.76,0,0,1,30.25,35.5Zm0-20a9.25,9.25,0,1,0,9.25,9.25A9.26,9.26,0,0,0,30.25,15.5Z"/><path class="cls-1" d="M23.92,26a.75.75,0,0,1-.75-.75,7.76,7.76,0,0,1,7.75-7.75.75.75,0,0,1,0,1.5,6.25,6.25,0,0,0-6.25,6.25A.76.76,0,0,1,23.92,26Z"/></g></g></svg>