<svg xmlns="http://www.w3.org/2000/svg" viewBox="0 0 60.5 45.5"><defs><style>.cls-1{fill:#03a9f4;}</style></defs><title>eyeme1-active</title><g id="Layer_2" data-name="Layer 2"><g id="Layer_1-2" data-name="Layer 1"><path class="cls-1" d="M57.75,5H40.09c-1.3-5-1.8-5-2.34-5h-15c-.54,0-1,0-2.34,5H2.75A2.75,2.75,0,0,0,0,7.75v35A2.75,2.75,0,0,0,2.75,45.5h55a2.75,2.75,0,0,0,2.75-2.75v-35A2.75,2.75,0,0,0,57.75,5ZM59,42.75A1.25,1.25,0,0,1,57.75,44h-55A1.25,1.25,0,0,1,1.5,42.75v-35A1.25,1.25,0,0,1,2.75,6.5H21.58L22,5a28.34,28.34,0,0,1,1.12-3.5H37.41A28.34,28.34,0,0,1,38.53,5l.39,1.5H57.75A1.25,1.25,0,0,1,59,7.75Z"/><path class="cls-1" d="M30.25,39A14.75,14.75,0,1,1,45,24.25,14.77,14.77,0,0,1,30.25,39Zm0-28A13.25,13.25,0,1,0,43.5,24.25,13.26,13.26,0,0,0,30.25,11Z"/><path class="cls-1" d="M21.75,23.5a.76.76,0,0,1-.75-.75C21,18.48,24.93,15,29.75,15a.75.75,0,0,1,0,1.5c-4,0-7.25,2.8-7.25,6.25A.76.76,0,0,1,21.75,23.5Z"/><path class="cls-1" d="M21.75,27.5a.76.76,0,0,1-.75-.75v-1a.75.75,0,0,1,1.5,0v1A.76.76,0,0,1,21.75,27.5Z"/><path class="cls-1" d="M10.75,1.5h-9A.76.76,0,0,1,1,.75.76.76,0,0,1,1.75,0h9a.76.76,0,0,1,.75.75A.76.76,0,0,1,10.75,1.5Z"/><path class="cls-1" d="M55.75,10.5h-9a.75.75,0,0,1,0-1.5h9a.75.75,0,0,1,0,1.5Z"/></g></g></svg>