<svg xmlns="http://www.w3.org/2000/svg" viewBox="0 0 49.53 46.29"><title>love</title><g id="Layer_2" data-name="Layer 2"><g id="Layer_1-2" data-name="Layer 1"><path d="M24.92,46.29l-.46-.35A133.5,133.5,0,0,1,11.58,34.35L10.46,33.2C6.37,29,1.73,24.33.54,18.84S.15,8.67,2.84,5.31,9.83.12,14.77.09h.06c5.73,0,8.66,4.17,9.9,6.61C25.94,4.24,28.86,0,34.62,0h.11c4.89,0,9.21,1.85,11.87,5.09s3.57,8,2.43,13.52S43.33,28.83,39.3,33l-1.16,1.2A130,130,0,0,1,25.37,45.93ZM14.83,1.59h-.05C10.29,1.62,6.37,3.31,4,6.25S.91,13.49,2,18.53s5.58,9.61,9.53,13.62l1.13,1.15A132.79,132.79,0,0,0,24.91,44.39a133.75,133.75,0,0,0,12.15-11.2L38.22,32c3.89-4,8.3-8.61,9.34-13.67S47.87,9,45.44,6,39.17,1.5,34.73,1.5h-.1c-7,0-9.15,7.28-9.18,7.36l-.7,2.46L24,8.86C23.93,8.57,21.76,1.59,14.83,1.59Z"/></g></g></svg>