<svg xmlns="http://www.w3.org/2000/svg" viewBox="0 0 49.52 46"><defs><style>.cls-1{fill:#e53935;}</style></defs><title>love-active</title><g id="Layer_2" data-name="Layer 2"><g id="Layer_1-2" data-name="Layer 1"><path class="cls-1" d="M49,18.5c-1.12,5.44-5.69,10.16-9.73,14.31L38.15,34A132.51,132.51,0,0,1,25.38,45.65l-.46.35-.46-.35A129.22,129.22,0,0,1,11.59,34.13L10.46,33C6.37,28.86,1.73,24.18.54,18.73S.15,8.62,2.85,5.27,9.83.12,14.77.09h.07c5.72,0,8.66,4.13,9.89,6.57C25.94,4.2,28.86,0,34.62,0h.11C39.62,0,44,1.84,46.6,5.06S50.17,13,49,18.5Z"/></g></g></svg>