<svg xmlns="http://www.w3.org/2000/svg" viewBox="0 0 53.6 46"><defs><style>.cls-1{fill:#03a9f4;}.cls-2{fill:#e53935;}</style></defs><title>notification-red-active</title><g id="Layer_2" data-name="Layer 2"><g id="Layer_1-2" data-name="Layer 1"><path class="cls-1" d="M41.46,9.24A19.5,19.5,0,0,0,40,7.42a20.62,20.62,0,0,0-2.74-2.54,21.32,21.32,0,0,0-1.82-1.29A21.6,21.6,0,0,0,23.85.25h-.77A20.25,20.25,0,0,0,20.61.5h-.05c-.6.09-1.21.21-1.79.35a21.43,21.43,0,0,0-6.88,3A17.55,17.55,0,0,0,10.1,5.17c-.36.29-.71.6-1,.91A21.28,21.28,0,0,0,7.25,8a21.64,21.64,0,0,0-4.13,7.4C3,15.88,2.8,16.41,2.68,17A21.22,21.22,0,0,0,2.08,22,21.5,21.5,0,0,0,4.49,32L0,46l13.49-4.83a21.57,21.57,0,0,0,10.36,2.64,21.87,21.87,0,0,0,6-.84,14.77,14.77,0,0,0,1.55-.51,21.72,21.72,0,0,0,9-6.26L40.5,36a16.59,16.59,0,0,0,1.27-1.66A21.29,21.29,0,0,0,45.42,25a1.85,1.85,0,0,0,0-.23c.07-.5.11-1,.14-1.54q0-.53,0-1.05a1.09,1.09,0,0,0,0-.18A21.52,21.52,0,0,0,41.46,9.24Zm2.62,15c0,.06,0,.13,0,.19-.07.63-.18,1.25-.31,1.86,0,.15-.06.3-.1.45a20,20,0,0,1-1.94,5.08,17.52,17.52,0,0,1-1.28,2A19.37,19.37,0,0,1,38,36.66a19,19,0,0,1-1.87,1.6A20,20,0,0,1,30,41.43a13.37,13.37,0,0,1-1.65.44,19.77,19.77,0,0,1-4.45.5,20.14,20.14,0,0,1-8.5-1.87,12,12,0,0,1-1.59-.84h0L12,40.27h0L2.09,43.84,5,34.71H5l1-3c-.3-.55-.57-1.12-.82-1.71a20,20,0,0,1-1.3-11.52,13.59,13.59,0,0,1,.37-1.68,20.05,20.05,0,0,1,2.87-6.22,19.68,19.68,0,0,1,1.55-2,20.28,20.28,0,0,1,3.88-3.4,16.1,16.1,0,0,1,2.28-1.32,17.12,17.12,0,0,1,2.72-1.13c.42-.15.85-.27,1.29-.39l.67-.16c.58-.12,1.15-.23,1.74-.3a20.78,20.78,0,0,1,2.64-.17A20.28,20.28,0,0,1,36.18,5.86a20.66,20.66,0,0,1,2.87,2.66A20.2,20.2,0,0,1,44.2,22,19.73,19.73,0,0,1,44.08,24.2Z"/><circle class="cls-2" cx="43.1" cy="10.5" r="10.5"/></g></g></svg>