<svg xmlns="http://www.w3.org/2000/svg" viewBox="0 0 45.9 45.91"><title>add</title><g id="Layer_2" data-name="Layer 2"><g id="Layer_1-2" data-name="Layer 1"><path d="M36.15,0H9.75A9.76,9.76,0,0,0,0,9.75V36.16a9.76,9.76,0,0,0,9.75,9.75h26.4a9.76,9.76,0,0,0,9.75-9.75V9.75A9.76,9.76,0,0,0,36.15,0ZM44.4,36.16a8.26,8.26,0,0,1-8.25,8.25H9.75A8.26,8.26,0,0,1,1.5,36.16V9.75A8.26,8.26,0,0,1,9.75,1.5h26.4A8.26,8.26,0,0,1,44.4,9.75Z"/><path d="M36,23a.85.85,0,0,1-.84.84H23.78V35.12a.83.83,0,1,1-1.66,0V23.79H10.72A.85.85,0,0,1,9.88,23a.84.84,0,0,1,.84-.83h11.4V10.72a.83.83,0,1,1,1.66,0v11.4h11.4A.84.84,0,0,1,36,23Z"/></g></g></svg>