<svg xmlns="http://www.w3.org/2000/svg" viewBox="0 0 38.11 45.68"><title>notification</title><g id="Layer_2" data-name="Layer 2"><g id="Layer_1-2" data-name="Layer 1"><path d="M38,38.54,34.69,33a16.68,16.68,0,0,1-2.37-8.56V19.62a13.26,13.26,0,0,0-9.7-12.77V3.56a3.57,3.57,0,0,0-7.13,0V6.85A13.26,13.26,0,0,0,5.78,19.62v4.84A16.62,16.62,0,0,1,3.41,33L.09,38.55a.78.78,0,0,0,0,.73.73.73,0,0,0,.63.36H14.79a4.42,4.42,0,0,0-.27,1.51,4.54,4.54,0,0,0,9.07,0,4.88,4.88,0,0,0-.25-1.51h14a.75.75,0,0,0,.64-.37A.73.73,0,0,0,38,38.54Zm-19-37.19a2.22,2.22,0,0,1,2.22,2.21v3a13.24,13.24,0,0,0-4.44,0v-3A2.22,2.22,0,0,1,19.05,1.35Zm0,43a3.19,3.19,0,0,1-3.18-3.18,3.07,3.07,0,0,1,.38-1.51h5.61a3.18,3.18,0,0,1-2.81,4.69ZM2,38.19l2.66-4.42a18.06,18.06,0,0,0,2.58-9.31V19.62a11.81,11.81,0,1,1,23.62,0v4.84a18.06,18.06,0,0,0,2.58,9.31l2.66,4.42Z"/></g></g></svg>