<svg xmlns="http://www.w3.org/2000/svg" viewBox="0 0 50.13 45.74"><title>home</title><g id="Layer_2" data-name="Layer 2"><g id="Layer_1-2" data-name="Layer 1"><path d="M50,23.81a1.74,1.74,0,0,0-.16-.18L27,.8A2.72,2.72,0,0,0,25.06,0a2.76,2.76,0,0,0-1.94.8L.27,23.66l-.13.14a.71.71,0,0,0-.14.43.76.76,0,0,0,1.17.63l0,0,.07-.06L3.2,22.84V43A2.75,2.75,0,0,0,6,45.74H18.53a2.74,2.74,0,0,0,2.2-1.1A2.77,2.77,0,0,0,21.28,43V34.22A1.25,1.25,0,0,1,22.53,33H27.6a1.25,1.25,0,0,1,1.25,1.25V43a2.77,2.77,0,0,0,.55,1.65,2.74,2.74,0,0,0,2.2,1.1H44.19A2.75,2.75,0,0,0,46.94,43V22.85l1.89,1.9a.78.78,0,0,0,1,.11l0,0,.08-.07a.74.74,0,0,0,.21-.52A.68.68,0,0,0,50,23.81ZM44.19,44.24H31.6A1.25,1.25,0,0,1,30.35,43V34.22a2.64,2.64,0,0,0-.55-1.64,2.76,2.76,0,0,0-2.2-1.11H22.53a2.76,2.76,0,0,0-2.2,1.11,2.64,2.64,0,0,0-.55,1.64V43a1.25,1.25,0,0,1-1.25,1.25H6A1.25,1.25,0,0,1,4.7,43V21.34L24.19,1.87a1.27,1.27,0,0,1,1.76,0L45.44,21.35V43A1.25,1.25,0,0,1,44.19,44.24Z"/></g></g></svg>